#!OML:ASF H:\BabyWalks\Project 1\Capture day 1\Session 1\baby.ASF
:FULLY-SPECIFIED
:DEGREES
430
root 2.89161 15.9044 -0.325843 -148.359 87.9947 -161.642
lowerback 30.6407 -0.410795 0.0515028
upperback 6.77847 0.359161 1.78743
thorax -9.18202 0.45043 1.81533
lowerneck 0.054916 -1.66061 5.53514
upperneck -19.4199 -2.11758 -3.8029
head -5.97394 -0.938835 -2.0495
rclavicle 2.18663e-015 -3.77691e-015
rhumerus -41.1534 12.2322 -80.6217
rradius 44.1537
rwrist 1.58743
rhand -6.9745 -17.1745
rfingers 7.12502
rthumb 18.8953 -46.2768
lclavicle 2.18663e-015 -3.77691e-015
lhumerus -35.1537 -13.1263 74.0859
lradius 51.8766
lwrist -8.61311
lhand -0.985469 2.66541
lfingers 7.12502
lthumb 24.6461 31.0984
rfemur -49.3092 1.16405 20.6306
rtibia 67.9887
rfoot -27.3395 5.29469
rtoes -2.03867
lfemur -53.8848 6.69291 -15.9573
ltibia 71.3356
lfoot -24.9665 -21.3456
ltoes 2.69689
431
root 2.9226 15.8108 -0.32106 -152.591 88.2446 -166.245
lowerback 30.9495 -0.299263 -0.128121
upperback 6.8137 0.452209 1.76183
thorax -9.29337 0.50028 1.85691
lowerneck -0.0038133 -1.67787 5.54281
upperneck -19.7044 -2.1447 -3.85893
head -6.05584 -0.942955 -2.07053
rclavicle -1.98785e-016 -3.57812e-015
rhumerus -40.517 12.3205 -80.369
rradius 44.1902
rwrist 1.53811
rhand -7.8386 -17.0975
rfingers 7.12502
rthumb 18.0641 -46.2786
lclavicle -1.98785e-016 -3.57812e-015
lhumerus -34.7277 -13.545 74.0015
lradius 52.1221
lwrist -8.67117
lhand -1.03743 2.63236
lfingers 7.12502
lthumb 24.5963 31.0722
rfemur -50.4059 1.09691 20.4609
rtibia 69.5142
rfoot -27.8933 5.3477
rtoes -2.79583
lfemur -54.7769 6.95238 -16.2313
ltibia 72.5553
lfoot -25.5124 -21.5012
ltoes 2.39648
432
root 2.95288 15.7189 -0.318018 -157.686 88.5217 -171.677
lowerback 31.2822 -0.175032 -0.325646
upperback 6.85386 0.554685 1.73379
thorax -9.41071 0.555103 1.90193
lowerneck -0.0695307 -1.68734 5.54388
upperneck -19.9679 -2.16334 -3.92139
head -6.12958 -0.942125 -2.09295
rclavicle 7.15625e-015 5.96354e-015
rhumerus -39.8868 12.389 -80.1044
rradius 44.262
rwrist 1.3581
rhand -8.77939 -17.0002
rfingers 7.12502
rthumb 17.1588 -46.2626
lclavicle 7.15625e-015 5.96354e-015
lhumerus -34.2871 -13.9256 73.8975
lradius 52.4089
lwrist -8.7553
lhand -1.18413 2.55062
lfingers 7.12502
lthumb 24.4557 31.0095
rfemur -51.4564 1.05986 20.2927
rtibia 70.995
rfoot -28.401 5.39189
rtoes -3.62189
lfemur -55.5875 7.24307 -16.489
ltibia 73.6916
lfoot -26.1035 -21.6725
ltoes 2.09214
433
root 2.98327 15.6289 -0.316147 -164.453 88.8065 -178.747
lowerback 31.6315 -0.0455227 -0.529277
upperback 6.90018 0.660576 1.70275
thorax -9.52879 0.61186 1.94496
lowerneck -0.152683 -1.68806 5.54492
upperneck -20.2013 -2.17239 -3.99147
head -6.19044 -0.936332 -2.11827
rclavicle 7.55382e-015 9.54166e-015
rhumerus -39.2581 12.4401 -79.8314
rradius 44.3621
rwrist 1.04943
rhand -9.76162 -16.9016
rfingers 7.12502
rthumb 16.2132 -46.2436
lclavicle 7.55382e-015 9.54166e-015
lhumerus -33.8298 -14.2526 73.7632
lradius 52.7266
lwrist -8.85178
lhand -1.3967 2.43409
lfingers 7.12502
lthumb 24.2519 30.9203
rfemur -52.4483 1.04857 20.1299
rtibia 72.4328
rfoot -28.8585 5.44854
rtoes -4.43167
lfemur -56.3224 7.55032 -16.7217
ltibia 74.7536
lfoot -26.7062 -21.8756
ltoes 1.8608
434
root 3.01375 15.5425 -0.315242 -174.208 89.0829 -188.786
lowerback 32.2136 0.0849576 -0.718801
upperback 6.52077 0.767071 1.74278
thorax -9.45197 0.652572 1.90188
lowerneck -0.253177 -1.67917 5.54581
upperneck -20.4046 -2.17027 -4.06704
head -6.23828 -0.925 -2.14585
rclavicle 6.36111e-015 2.10712e-014
rhumerus -38.6329 12.4664 -79.5549
rradius 44.4945
rwrist 0.621065
rhand -10.7605 -16.8222
rfingers 7.12502
rthumb 15.2512 -46.24
lclavicle 6.36111e-015 2.10712e-014
lhumerus -33.3587 -14.5039 73.5929
lradius 53.0761
lwrist -8.93986
lhand -1.64792 2.30789
lfingers 7.12502
lthumb 24.011 30.8261
rfemur -53.4316 1.06105 19.9731
rtibia 73.8356
rfoot -29.2239 5.58065
rtoes -5.02267
lfemur -57.0058 7.86226 -16.9241
ltibia 75.7523
lfoot -27.3018 -22.0793
ltoes 1.64411
435
root 3.04524 15.4593 -0.315015 -189.397 89.3277 -204.249
lowerback 32.5281 0.208811 -0.898513
upperback 6.562 0.868193 1.71123
thorax -9.53614 0.705768 1.92529
lowerneck -0.375793 -1.66086 5.5467
upperneck -20.5736 -2.15673 -4.14457
head -6.27081 -0.90839 -2.17456
rclavicle 4.77083e-015 3.97569e-016
rhumerus -38.0101 12.4682 -79.2798
rradius 44.656
rwrist 0.111518
rhand -11.7543 -16.7782
rfingers 7.12502
rthumb 14.2938 -46.2662
lclavicle 4.77083e-015 3.97569e-016
lhumerus -32.8726 -14.6691 73.3813
lradius 53.4454
lwrist -8.99593
lhand -1.90897 2.18692
lfingers 7.12502
lthumb 23.7607 30.7379
rfemur -54.3944 1.0956 19.832
rtibia 75.2002
rfoot -29.5089 5.78221
rtoes -5.42294
lfemur -57.6535 8.17431 -17.0886
ltibia 76.7096
lfoot -27.869 -22.2898
ltoes 1.41432
